<svg width="878" height="206" viewBox="0 0 878 206" fill="none" xmlns="http://www.w3.org/2000/svg">
<g filter="url(#filter0_d_406480_4595)">
<path d="M5 33C5 15.3269 19.3269 1 37 1H841C858.673 1 873 15.3269 873 33V165C873 182.673 858.673 197 841 197H37C19.3269 197 5 182.673 5 165V33Z" fill="black" fill-opacity="0.5" shape-rendering="crispEdges"/>
<path d="M841 0.5H37C19.0507 0.5 4.5 15.0507 4.5 33V165C4.5 182.949 19.0508 197.5 37 197.5H841C858.949 197.5 873.5 182.949 873.5 165V33C873.5 15.0507 858.949 0.5 841 0.5Z" stroke="black" shape-rendering="crispEdges"/>
</g>
<defs>
<filter id="filter0_d_406480_4595" x="0" y="0" width="878" height="206" filterUnits="userSpaceOnUse" color-interpolation-filters="sRGB">
<feFlood flood-opacity="0" result="BackgroundImageFix"/>
<feColorMatrix in="SourceAlpha" type="matrix" values="0 0 0 0 0 0 0 0 0 0 0 0 0 0 0 0 0 0 127 0" result="hardAlpha"/>
<feOffset dy="4"/>
<feGaussianBlur stdDeviation="2"/>
<feComposite in2="hardAlpha" operator="out"/>
<feColorMatrix type="matrix" values="0 0 0 0 0 0 0 0 0 0 0 0 0 0 0 0 0 0 0.25 0"/>
<feBlend mode="normal" in2="BackgroundImageFix" result="effect1_dropShadow_406480_4595"/>
<feBlend mode="normal" in="SourceGraphic" in2="effect1_dropShadow_406480_4595" result="shape"/>
</filter>
</defs>
</svg>
